{"glyphs":{"0":{"ha":813,"x_min":0,"x_max":0,"o":"m 33 813 l 779 813 l 779 0 l 471 0 b 306 31 413 0 358 10 b 166 117 253 51 206 80 b 69 251 126 155 94 200 b 33 425 45 303 33 361 z m 340 507 l 340 438 b 377 340 340 396 353 363 b 472 306 402 317 433 306 l 472 507 z "},"1":{"ha":467,"x_min":0,"x_max":0,"o":"m 126 0 l 126 507 l 33 507 l 33 813 l 433 813 l 433 0 z "},"2":{"ha":813,"x_min":0,"x_max":0,"o":"m 472 375 l 779 375 b 742 574 779 453 767 519 b 645 710 718 629 685 675 b 506 788 605 746 558 772 b 342 813 453 804 398 813 l 33 813 l 33 507 l 340 507 b 435 472 379 507 411 495 b 472 375 460 449 472 417 z m 340 438 l 33 438 l 33 0 l 779 0 l 779 306 l 340 306 z "},"3":{"ha":657,"x_min":0,"x_max":0,"o":"m 624 813 l 624 425 b 588 251 624 361 612 303 b 491 117 563 200 531 155 b 351 31 451 80 404 51 b 186 0 299 10 244 0 l 33 0 l 33 306 l 186 306 b 281 340 225 306 256 317 b 317 438 305 363 317 396 l 33 438 l 33 739 l 317 739 l 317 813 z "},"4":{"ha":813,"x_min":0,"x_max":0,"o":"m 472 378 b 377 413 433 378 402 389 b 340 510 353 436 340 468 l 340 813 l 33 813 l 33 499 b 69 324 33 435 45 377 b 167 190 94 272 126 227 b 307 105 207 153 254 125 b 472 75 360 85 415 75 l 472 0 l 779 0 l 779 813 l 472 813 z "},"5":{"ha":813,"x_min":0,"x_max":0,"o":"m 472 438 l 779 438 b 742 244 779 363 767 299 b 645 108 718 190 685 144 b 506 27 605 72 558 45 b 342 0 453 9 398 0 l 33 0 l 33 306 l 340 306 b 435 340 379 306 411 317 b 472 438 460 363 472 396 z m 340 375 l 33 375 l 33 813 l 779 813 l 779 507 l 340 507 z "},"6":{"ha":813,"x_min":0,"x_max":0,"o":"m 760 507 b 708 638 753 556 736 600 b 610 733 681 675 648 707 b 487 792 572 759 531 779 b 363 813 443 806 401 813 l 33 813 l 33 425 b 69 251 33 361 45 303 b 166 117 94 200 126 155 b 306 31 206 80 253 51 b 471 0 358 10 413 0 l 779 0 l 779 439 l 460 439 b 472 375 468 420 472 399 l 472 306 b 377 340 433 306 402 317 b 340 438 353 363 340 396 l 340 507 z "},"7":{"ha":656,"x_min":0,"x_max":0,"o":"m 622 813 l 622 425 b 586 251 622 361 610 303 b 490 117 562 200 530 155 b 350 31 449 80 403 51 b 185 0 297 10 242 0 l 185 306 b 279 340 224 306 255 317 b 315 438 303 363 315 396 l 315 507 l 33 507 l 33 813 z "},"8":{"ha":803,"x_min":0,"x_max":0,"o":"m 33 813 l 33 497 b 57 358 33 447 41 401 b 128 235 73 316 96 275 l 33 0 l 769 0 l 675 235 b 744 352 705 272 728 311 b 768 497 760 393 768 442 l 768 813 z m 403 392 b 357 440 381 402 366 418 b 342 507 348 463 343 485 l 461 507 b 403 392 459 448 440 409 z "},"9":{"ha":813,"x_min":0,"x_max":0,"o":"m 340 375 b 377 472 340 417 353 449 b 472 507 402 495 433 507 l 472 438 b 435 340 472 396 460 363 b 340 306 411 317 379 306 l 33 306 l 33 0 l 342 0 b 507 31 399 0 454 10 b 647 117 560 51 606 80 b 743 251 687 155 719 200 b 779 425 767 303 779 361 l 779 813 l 471 813 b 306 782 413 813 358 802 b 166 695 253 762 206 733 b 69 558 126 658 94 612 b 33 375 45 503 33 443 z "},"―":{"ha":694,"x_min":0,"x_max":0,"o":""},"‖":{"ha":694,"x_min":0,"x_max":0,"o":""},"‗":{"ha":694,"x_min":0,"x_max":0,"o":""},"‛":{"ha":694,"x_min":0,"x_max":0,"o":""},"‟":{"ha":694,"x_min":0,"x_max":0,"o":""},"‣":{"ha":694,"x_min":0,"x_max":0,"o":""},"․":{"ha":694,"x_min":0,"x_max":0,"o":""},"‥":{"ha":694,"x_min":0,"x_max":0,"o":""}," ":{"ha":304,"x_min":0,"x_max":0,"o":""}," ":{"ha":304,"x_min":0,"x_max":0,"o":""},"!":{"ha":374,"x_min":0,"x_max":0,"o":"m 33 375 l 340 375 l 340 813 l 33 813 z m 340 0 l 340 306 l 33 306 l 33 0 z "},"\"":{"ha":731,"x_min":0,"x_max":0,"o":"m 339 940 l 339 507 l 32 507 l 32 813 l -22 940 z m 697 940 l 697 507 l 390 507 l 390 940 z "},"#":{"ha":924,"x_min":0,"x_max":0,"o":"m 33 714 l 33 435 l 490 435 l 490 376 l 33 376 l 33 97 l 126 97 l 126 0 l 433 0 l 433 97 l 490 97 l 490 0 l 797 0 l 797 97 l 890 97 l 890 376 l 797 376 l 797 435 l 890 435 l 890 714 l 797 714 l 797 813 l 490 813 l 490 714 l 433 714 l 433 813 l 126 813 l 126 714 z "},"$":{"ha":813,"x_min":0,"x_max":0,"o":"m 340 375 b 377 472 340 417 353 449 b 472 507 402 495 433 507 l 779 507 l 779 813 l 560 813 l 560 886 l 253 886 l 253 754 b 94 606 188 717 135 668 b 33 375 54 545 33 468 z m 560 -74 l 560 60 b 717 209 624 97 676 147 b 779 438 757 272 778 348 l 472 438 b 435 340 472 396 460 363 b 340 306 411 317 379 306 l 33 306 l 33 0 l 253 0 l 253 -74 z "},"%":{"ha":1165,"x_min":0,"x_max":0,"o":"m 563 0 l 271 0 l 603 813 l 894 813 z m 722 0 l 722 211 b 742 306 722 245 729 277 b 794 381 755 335 772 360 b 871 430 817 402 842 418 b 963 447 900 441 930 447 l 1132 447 l 1132 235 b 1113 139 1132 200 1125 168 b 1060 65 1100 110 1082 86 b 983 17 1038 45 1012 29 b 892 0 953 6 923 0 z m 890 206 l 890 168 b 943 187 912 168 929 174 b 964 240 957 199 964 217 l 964 279 b 911 260 943 279 925 273 b 890 206 897 248 890 230 z m 33 365 l 33 576 b 53 672 33 611 40 642 b 106 747 66 701 83 726 b 182 795 128 767 153 784 b 274 813 211 807 241 813 l 443 813 l 443 600 b 424 504 443 565 437 533 b 371 431 411 475 393 451 b 294 383 349 410 323 394 b 203 365 265 371 234 365 z m 201 571 l 201 533 b 254 552 223 533 240 540 b 275 606 268 565 275 582 l 275 644 b 222 626 254 644 236 638 b 201 571 208 613 201 595 z "},"&":{"ha":879,"x_min":0,"x_max":0,"o":"m 33 0 l 768 0 l 768 253 l 846 253 l 846 558 l 669 558 l 769 813 l 33 813 l 128 578 b 57 454 96 538 73 497 b 33 315 41 412 33 365 z m 403 421 b 461 306 440 403 459 365 l 342 306 b 357 372 343 328 348 350 b 403 421 366 394 381 411 z "},"'":{"ha":374,"x_min":0,"x_max":0,"o":"m 340 940 l 340 507 l 33 507 l 33 813 l -21 940 z "},"(":{"ha":504,"x_min":0,"x_max":0,"o":"m 33 0 l 33 388 b 69 561 33 451 45 509 b 166 695 94 613 126 658 b 306 782 206 733 253 762 b 471 813 358 802 413 813 l 471 507 b 376 472 432 507 400 495 b 340 375 352 449 340 417 l 340 306 l 471 306 l 471 0 z "},")":{"ha":504,"x_min":0,"x_max":0,"o":"m 471 813 l 471 425 b 435 251 471 361 459 303 b 338 117 411 200 378 155 b 199 31 298 80 251 51 b 33 0 146 10 91 0 l 33 306 b 128 340 72 306 104 317 b 164 438 152 363 164 396 l 164 507 l 33 507 l 33 813 z "},"*":{"ha":374,"x_min":0,"x_max":0,"o":"m 340 635 l 340 940 l 33 940 l 33 635 z "},"+":{"ha":558,"x_min":0,"x_max":0,"o":"m 33 558 l 33 253 l 126 253 l 126 160 l 432 160 l 432 253 l 525 253 l 525 558 l 432 558 l 432 651 l 126 651 l 126 558 z "},",":{"ha":374,"x_min":0,"x_max":0,"o":"m 340 -128 l 340 306 l 33 306 l 33 0 l -21 -128 z "},"-":{"ha":408,"x_min":0,"x_max":0,"o":"m 33 558 l 375 558 l 375 253 l 33 253 z "},".":{"ha":374,"x_min":0,"x_max":0,"o":"m 340 0 l 340 306 l 33 306 l 33 0 z "},"/":{"ha":690,"x_min":0,"x_max":0,"o":"m 664 813 l 358 813 l 26 0 l 332 0 z "},":":{"ha":374,"x_min":0,"x_max":0,"o":"m 340 0 l 340 306 l 33 306 l 33 0 z m 340 375 l 340 681 l 33 681 l 33 375 z "},";":{"ha":374,"x_min":0,"x_max":0,"o":"m 340 375 l 340 681 l 33 681 l 33 375 z m 340 -128 l 340 306 l 33 306 l 33 0 l -21 -128 z "},"<":{"ha":525,"x_min":0,"x_max":0,"o":"m 497 813 l 192 813 l 26 406 l 193 0 l 499 0 l 336 406 z "},"=":{"ha":436,"x_min":0,"x_max":0,"o":"m 33 378 l 403 378 l 403 99 l 33 99 z m 33 713 l 403 713 l 403 433 l 33 433 z "},">":{"ha":525,"x_min":0,"x_max":0,"o":"m 28 813 l 333 813 l 499 406 l 332 0 l 26 0 l 189 406 z "},"?":{"ha":813,"x_min":0,"x_max":0,"o":"m 472 0 l 472 306 l 165 306 l 165 0 z m 472 375 l 779 375 b 742 560 779 444 767 506 b 645 698 718 615 685 660 b 506 783 605 735 558 764 b 342 813 453 803 398 813 l 33 813 l 33 507 l 340 507 b 435 472 379 507 411 495 b 472 375 460 449 472 417 z "},"@":{"ha":1168,"x_min":0,"x_max":0,"o":"m 381 182 l 710 182 b 873 192 767 182 822 185 b 1008 235 924 199 969 213 b 1101 324 1047 256 1078 286 b 1135 478 1123 363 1135 414 l 1135 974 l 467 974 b 302 943 409 974 354 963 b 164 856 250 923 204 894 b 69 722 124 819 92 774 b 33 549 45 670 33 613 l 33 -164 l 1135 -164 l 1135 132 l 329 132 l 329 547 b 365 644 329 589 341 621 b 460 679 389 668 421 679 l 840 679 l 840 482 b 783 368 840 430 821 392 b 788 395 785 377 787 386 b 790 424 790 404 790 413 l 790 629 l 621 629 b 529 611 588 629 558 623 b 453 560 500 599 475 582 b 400 483 431 539 413 513 b 381 386 387 454 381 421 z m 542 388 b 563 442 542 412 549 430 b 615 461 576 455 594 461 l 615 422 b 594 369 615 399 608 381 b 542 350 581 356 563 350 z "},"A":{"ha":813,"x_min":0,"x_max":0,"o":"m 340 375 b 377 472 340 417 353 449 b 472 507 402 495 433 507 l 472 0 l 779 0 l 779 813 l 471 813 b 306 782 413 813 358 802 b 166 695 253 762 206 733 b 69 561 126 658 94 613 b 33 388 45 509 33 451 l 33 0 l 411 0 l 411 306 l 340 306 z "},"B":{"ha":813,"x_min":0,"x_max":0,"o":"m 33 813 l 33 0 l 779 0 l 779 315 b 743 489 779 379 767 437 b 646 622 719 541 687 585 b 506 708 605 659 558 688 b 340 738 453 728 398 738 l 340 813 z m 340 436 b 435 402 379 436 411 425 b 472 306 460 379 472 347 l 340 306 z "},"C":{"ha":657,"x_min":0,"x_max":0,"o":"m 33 813 l 33 425 b 69 251 33 361 45 303 b 166 117 94 200 126 155 b 306 31 206 80 253 51 b 471 0 358 10 413 0 l 624 0 l 624 306 l 471 306 b 376 340 432 306 400 317 b 340 438 352 363 340 396 l 340 507 l 622 507 l 622 813 z "},"D":{"ha":813,"x_min":0,"x_max":0,"o":"m 779 813 l 472 813 l 472 736 l 33 736 l 33 421 b 69 247 33 357 45 299 b 167 114 94 195 126 151 b 307 28 207 77 254 48 b 472 -1 360 9 415 -1 l 779 -1 z m 472 301 b 377 335 433 301 402 313 b 340 432 353 358 340 390 l 472 432 z "},"E":{"ha":813,"x_min":0,"x_max":0,"o":"m 33 388 b 69 561 33 451 45 509 b 166 695 94 613 126 658 b 306 782 206 733 253 762 b 471 813 358 802 413 813 l 779 813 l 779 374 l 460 374 b 472 438 468 391 472 413 l 472 507 b 377 472 433 507 402 495 b 340 375 353 449 340 417 l 340 306 l 779 306 l 779 0 l 33 0 z "},"F":{"ha":657,"x_min":0,"x_max":0,"o":"m 33 -75 l 33 388 b 69 561 33 451 45 509 b 166 695 94 613 126 658 b 306 782 206 733 253 762 b 471 813 358 802 413 813 l 624 813 l 624 507 l 471 507 b 376 472 432 507 400 495 b 340 375 352 449 340 417 l 624 375 l 624 74 l 340 74 l 340 -75 z "},"G":{"ha":813,"x_min":0,"x_max":0,"o":"m 33 425 b 69 251 33 361 45 303 b 166 117 94 200 126 155 b 306 31 206 80 253 51 b 471 0 358 10 413 0 l 779 0 l 779 439 l 460 439 b 472 375 468 420 472 399 l 472 306 b 377 340 433 306 402 317 b 340 438 353 363 340 396 l 340 507 l 779 507 l 779 813 l 33 813 z "},"H":{"ha":813,"x_min":0,"x_max":0,"o":"m 340 435 b 435 400 379 435 411 423 b 472 303 460 377 472 344 l 472 0 l 779 0 l 779 311 b 743 485 779 375 767 433 b 646 620 719 538 687 583 b 506 707 605 658 558 687 b 340 738 453 727 398 738 l 340 813 l 33 813 l 33 0 l 340 0 z "},"I":{"ha":374,"x_min":0,"x_max":0,"o":"m 33 0 l 340 0 l 340 813 l 33 813 z "},"J":{"ha":813,"x_min":0,"x_max":0,"o":"m 779 425 b 743 251 779 361 767 303 b 647 117 719 200 687 155 b 507 31 606 80 560 51 b 342 0 454 10 399 0 l 33 0 l 33 439 l 353 439 b 340 375 344 420 340 399 l 340 306 b 435 340 379 306 411 317 b 472 438 460 363 472 396 l 472 507 l 142 507 l 142 813 l 779 813 z "},"K":{"ha":801,"x_min":0,"x_max":0,"o":"m 340 158 l 428 0 l 768 0 l 674 235 b 742 352 703 272 726 311 b 767 497 759 393 767 442 l 767 813 l 460 813 l 460 510 b 429 413 460 468 450 436 b 340 378 409 391 379 379 l 340 813 l 33 813 l 33 0 l 340 0 z "},"L":{"ha":657,"x_min":0,"x_max":0,"o":"m 33 813 l 33 425 b 69 251 33 361 45 303 b 166 117 94 200 126 155 b 306 31 206 80 253 51 b 471 0 358 10 413 0 l 624 0 l 624 306 l 471 306 b 376 340 432 306 400 317 b 340 438 352 363 340 396 l 340 813 z "},"M":{"ha":1226,"x_min":0,"x_max":0,"o":"m 460 0 l 460 507 b 371 472 421 506 391 494 b 340 375 350 449 340 417 l 340 0 l 33 0 l 33 388 b 67 561 33 451 45 509 b 160 695 90 613 121 658 b 296 782 199 733 244 762 b 460 813 348 802 402 813 l 1193 813 l 1193 0 l 886 0 l 886 507 b 801 474 851 506 823 495 b 767 386 780 452 769 423 l 767 0 z "},"N":{"ha":800,"x_min":0,"x_max":0,"o":"m 33 0 l 340 0 l 340 375 b 371 472 340 417 350 449 b 460 507 391 494 421 506 l 460 0 l 767 0 l 767 813 l 460 813 b 296 782 402 813 348 802 b 160 695 244 762 199 733 b 67 561 121 658 90 613 b 33 388 45 509 33 451 z "},"O":{"ha":813,"x_min":0,"x_max":0,"o":"m 779 0 l 779 388 b 743 561 779 451 767 509 b 647 695 719 613 687 658 b 507 782 606 733 560 762 b 342 813 454 802 399 813 l 33 813 l 33 425 b 69 251 33 361 45 303 b 166 117 94 200 126 155 b 306 31 206 80 253 51 b 471 0 358 10 413 0 z m 472 375 l 472 306 b 377 340 433 306 402 317 b 340 438 353 363 340 396 l 340 507 b 435 472 379 507 411 495 b 472 375 460 449 472 417 z "},"P":{"ha":813,"x_min":0,"x_max":0,"o":"m 33 -75 l 33 813 l 779 813 l 779 425 b 743 251 779 361 767 303 b 647 117 719 200 687 155 b 507 31 606 80 560 51 b 342 0 454 10 399 0 l 340 0 l 340 -75 z m 340 507 l 340 306 b 435 340 379 306 411 317 b 472 438 460 363 472 396 l 472 507 z "},"Q":{"ha":813,"x_min":0,"x_max":0,"o":"m 779 -75 l 779 813 l 471 813 b 306 782 413 813 358 802 b 166 695 253 762 206 733 b 69 561 126 658 94 613 b 33 388 45 509 33 451 l 33 0 l 472 0 l 472 -75 z m 340 306 l 340 375 b 377 472 340 417 353 449 b 472 507 402 495 433 507 l 472 306 z "},"R":{"ha":813,"x_min":0,"x_max":0,"o":"m 472 375 b 435 472 472 417 460 449 b 340 507 411 495 379 507 l 340 0 l 33 0 l 33 813 l 342 813 b 506 781 398 813 453 802 b 646 693 558 760 605 731 b 743 556 687 655 719 609 b 779 375 767 502 779 442 z "},"S":{"ha":800,"x_min":0,"x_max":0,"o":"m 553 361 l 553 358 b 500 210 544 304 527 254 b 401 97 473 166 440 129 b 269 25 361 66 317 42 b 118 0 220 8 170 0 l 33 0 l 33 306 l 118 306 b 213 347 157 306 188 319 b 251 454 237 374 250 410 b 303 601 260 508 277 557 b 401 714 330 645 363 682 b 533 787 440 745 484 770 b 683 813 581 804 631 813 l 767 813 l 767 507 l 683 507 b 589 465 644 507 613 493 b 553 361 565 438 553 403 z "},"T":{"ha":656,"x_min":0,"x_max":0,"o":"m 33 813 l 33 425 b 69 251 33 361 45 303 b 166 117 94 200 126 155 b 306 31 206 80 253 51 b 471 0 358 10 413 0 l 471 306 b 376 340 432 306 400 317 b 340 438 352 363 340 396 l 340 507 l 622 507 l 622 813 z "},"U":{"ha":800,"x_min":0,"x_max":0,"o":"m 33 813 l 340 813 l 340 438 b 371 341 340 396 350 364 b 460 306 391 318 421 306 l 460 813 l 767 813 l 767 0 l 460 0 b 296 31 402 0 348 10 b 160 117 244 51 199 80 b 67 251 121 155 90 200 b 33 425 45 303 33 361 z "},"V":{"ha":800,"x_min":0,"x_max":0,"o":"m 767 396 b 739 260 767 347 757 302 b 665 149 720 219 696 182 b 561 61 635 115 600 86 b 443 0 522 36 483 16 l 357 0 b 238 61 316 16 277 36 b 135 149 200 86 165 115 b 61 261 104 182 80 219 b 33 396 43 303 33 348 l 33 813 l 340 813 l 340 438 b 356 365 340 411 345 386 b 399 315 366 343 380 326 l 401 315 b 444 365 420 326 434 343 b 460 438 455 386 460 411 l 460 813 l 767 813 z "},"W":{"ha":1226,"x_min":0,"x_max":0,"o":"m 460 813 l 460 306 b 371 341 421 306 391 318 b 340 438 350 364 340 396 l 340 813 l 33 813 l 33 424 b 67 250 33 360 45 302 b 160 117 90 198 121 154 b 296 31 199 80 244 51 b 460 0 348 10 402 0 l 1193 0 l 1193 813 l 886 813 l 886 306 b 801 339 851 306 823 318 b 767 426 780 360 769 389 l 767 813 z "},"X":{"ha":803,"x_min":0,"x_max":0,"o":"m 461 510 l 461 813 l 768 813 l 768 496 b 744 351 768 440 760 392 b 675 235 728 311 705 272 l 769 0 l 444 0 l 400 106 l 357 0 l 33 0 l 128 235 b 59 351 98 272 75 311 b 35 496 43 392 35 440 l 35 813 l 342 813 l 342 510 b 401 390 342 450 362 410 b 461 510 441 410 461 450 z "},"Y":{"ha":801,"x_min":0,"x_max":0,"o":"m 342 813 l 342 510 b 372 413 342 468 352 436 b 461 378 393 391 422 379 l 461 813 l 768 813 l 768 0 l 33 0 l 128 235 b 59 352 98 272 75 311 b 35 497 43 393 35 442 l 35 813 z "},"Z":{"ha":800,"x_min":0,"x_max":0,"o":"m 247 356 b 300 208 256 301 273 252 b 399 96 327 164 360 126 b 531 25 439 65 483 42 b 682 0 580 8 630 0 l 767 0 l 767 306 l 682 306 b 628 318 663 306 645 310 b 586 351 612 326 598 337 b 558 398 574 364 565 380 b 549 454 552 416 549 435 l 549 813 l 33 813 l 33 507 l 247 507 z "},"[":{"ha":504,"x_min":0,"x_max":0,"o":"m 33 813 l 33 425 b 69 251 33 361 45 303 b 166 117 94 200 126 155 b 306 31 206 80 253 51 b 471 0 358 10 413 0 l 471 306 b 376 340 432 306 400 317 b 340 438 352 363 340 396 l 340 507 l 471 507 l 471 813 z "},"\\":{"ha":690,"x_min":0,"x_max":0,"o":"m 26 813 l 332 813 l 664 0 l 358 0 z "},"]":{"ha":504,"x_min":0,"x_max":0,"o":"m 471 0 l 471 388 b 435 561 471 451 459 509 b 338 695 411 613 378 658 b 199 782 298 733 251 762 b 33 813 146 802 91 813 l 33 507 b 128 472 72 507 104 495 b 164 375 152 449 164 417 l 164 306 l 33 306 l 33 0 z "},"^":{"ha":800,"x_min":0,"x_max":0,"o":"m 340 813 l 340 558 l 460 558 l 460 813 l 767 813 l 767 0 l 460 0 l 460 253 l 340 253 l 340 0 l 33 0 l 33 813 z "},"_":{"ha":589,"x_min":0,"x_max":0,"o":"m 33 306 l 556 306 l 556 0 l 33 0 z "},"`":{"ha":333,"x_min":0,"x_max":0,"o":"m -50 1149 l 33 885 l 300 885 l 226 1149 z "},"a":{"ha":813,"x_min":0,"x_max":0,"o":"m 33 438 b 69 238 33 360 45 293 b 166 101 94 182 126 137 b 306 24 206 66 253 41 b 471 0 358 8 413 0 l 779 0 l 779 388 b 743 561 779 451 767 509 b 647 695 719 613 687 658 b 507 782 606 733 560 762 b 342 813 454 802 399 813 l 33 813 l 33 507 l 340 507 b 435 472 379 507 411 495 b 472 375 460 449 472 417 l 472 306 b 377 340 433 306 402 317 b 340 438 353 363 340 396 z "},"b":{"ha":813,"x_min":0,"x_max":0,"o":"m 33 813 l 340 813 l 340 736 l 779 736 l 779 421 b 743 247 779 357 767 299 b 646 114 719 195 687 151 b 506 28 605 77 558 48 b 340 -1 453 9 398 -1 l 33 -1 z m 340 301 b 435 335 379 301 411 313 b 472 432 460 358 472 390 l 340 432 z "},"c":{"ha":657,"x_min":0,"x_max":0,"o":"m 33 0 l 33 388 b 69 561 33 451 45 509 b 166 695 94 613 126 658 b 306 782 206 733 253 762 b 471 813 358 802 413 813 l 624 813 l 624 507 l 471 507 b 376 472 432 507 400 495 b 340 375 352 449 340 417 l 340 306 l 622 306 l 622 0 z "},"d":{"ha":813,"x_min":0,"x_max":0,"o":"m 33 0 l 33 813 l 779 813 l 779 425 b 743 251 779 361 767 303 b 647 117 719 200 687 155 b 507 31 606 80 560 51 b 342 0 454 10 399 0 z m 340 507 l 340 306 b 435 340 379 306 411 317 b 472 438 460 363 472 396 l 472 507 z "},"e":{"ha":813,"x_min":0,"x_max":0,"o":"m 779 375 b 742 574 779 453 767 519 b 645 710 718 629 685 675 b 506 788 605 746 558 772 b 342 813 453 804 398 813 l 33 813 l 33 425 b 69 251 33 361 45 303 b 166 117 94 200 126 155 b 306 31 206 80 253 51 b 471 0 358 10 413 0 l 779 0 l 779 306 l 472 306 b 377 340 433 306 402 317 b 340 438 353 363 340 396 l 340 507 b 435 472 379 507 411 495 b 472 375 460 449 472 417 z "},"f":{"ha":657,"x_min":0,"x_max":0,"o":"m 33 0 l 33 388 b 69 561 33 451 45 509 b 166 695 94 613 126 658 b 306 782 206 733 253 762 b 471 813 358 802 413 813 l 624 813 l 624 507 l 471 507 b 376 472 432 507 400 495 b 340 375 352 449 340 417 l 624 375 l 624 74 l 340 74 l 340 0 z "},"g":{"ha":813,"x_min":0,"x_max":0,"o":"m 472 438 b 435 340 472 396 460 363 b 340 306 411 317 379 306 l 340 375 b 377 472 340 417 353 449 b 472 507 402 495 433 507 l 779 507 l 779 813 l 471 813 b 306 782 413 813 358 802 b 166 695 253 762 206 733 b 69 561 126 658 94 613 b 33 388 45 509 33 451 l 33 0 l 342 0 b 506 28 398 0 453 9 b 645 113 558 47 605 75 b 742 249 685 150 718 195 b 779 438 767 303 779 366 z "},"h":{"ha":813,"x_min":0,"x_max":0,"o":"m 33 0 l 340 0 l 340 96 b 406 81 362 89 383 84 b 472 75 428 77 450 75 l 472 0 l 779 0 l 779 813 l 472 813 l 472 378 b 377 413 433 378 402 389 b 340 510 353 436 340 468 l 340 813 l 33 813 z "},"i":{"ha":374,"x_min":0,"x_max":0,"o":"m 33 0 l 340 0 l 340 813 l 33 813 z "},"j":{"ha":657,"x_min":0,"x_max":0,"o":"m 624 813 l 624 433 b 588 258 624 369 612 311 b 491 122 563 206 531 160 b 351 32 451 83 404 53 b 186 0 299 11 244 0 l 33 0 l 33 306 l 186 306 b 281 340 225 306 256 317 b 317 438 305 363 317 396 l 317 813 z "},"k":{"ha":801,"x_min":0,"x_max":0,"o":"m 768 0 l 33 0 l 33 813 l 340 813 l 340 378 b 429 413 379 379 409 391 b 460 510 450 436 460 468 l 460 813 l 767 813 l 767 497 b 742 352 767 442 759 393 b 674 235 726 311 703 272 z "},"l":{"ha":657,"x_min":0,"x_max":0,"o":"m 33 813 l 33 425 b 69 251 33 361 45 303 b 166 117 94 200 126 155 b 306 31 206 80 253 51 b 471 0 358 10 413 0 l 624 0 l 624 306 l 471 306 b 376 340 432 306 400 317 b 340 438 352 363 340 396 l 340 813 z "},"m":{"ha":1226,"x_min":0,"x_max":0,"o":"m 767 0 l 767 507 b 856 472 806 506 835 494 b 886 375 876 449 886 417 l 886 0 l 1193 0 l 1193 388 b 1159 561 1193 451 1182 509 b 1067 695 1136 613 1106 658 b 931 782 1028 733 982 762 b 767 813 879 802 824 813 l 33 813 l 33 0 l 340 0 l 340 507 b 425 474 375 506 404 495 b 460 386 446 452 458 423 l 460 0 z "},"n":{"ha":800,"x_min":0,"x_max":0,"o":"m 767 0 l 460 0 l 460 375 b 429 472 460 417 450 449 b 340 507 409 494 379 506 l 340 0 l 33 0 l 33 813 l 340 813 b 504 782 398 813 452 802 b 640 695 556 762 601 733 b 733 561 679 658 710 613 b 767 388 755 509 767 451 z "},"o":{"ha":813,"x_min":0,"x_max":0,"o":"m 33 0 l 33 388 b 69 561 33 451 45 509 b 166 695 94 613 126 658 b 306 782 206 733 253 762 b 471 813 358 802 413 813 l 779 813 l 779 425 b 743 251 779 361 767 303 b 647 117 719 200 687 155 b 507 31 606 80 560 51 b 342 0 454 10 399 0 z m 340 375 l 340 306 b 435 340 379 306 411 317 b 472 438 460 363 472 396 l 472 507 b 377 472 433 507 402 495 b 340 375 353 449 340 417 z "},"p":{"ha":813,"x_min":0,"x_max":0,"o":"m 33 0 l 33 813 l 779 813 l 779 497 b 743 324 779 433 767 375 b 646 190 719 272 687 227 b 506 105 605 153 558 125 b 340 75 453 85 398 75 l 340 0 z m 340 376 b 435 410 379 376 411 388 b 472 507 460 433 472 465 l 340 507 z "},"q":{"ha":800,"x_min":0,"x_max":0,"o":"m 767 0 l 33 0 l 33 388 b 67 561 33 451 45 509 b 160 695 90 613 121 658 b 296 782 199 733 244 762 b 460 813 348 802 402 813 l 767 813 l 767 425 b 747 295 767 375 760 332 b 690 188 733 259 714 223 z m 340 375 l 340 306 b 435 340 379 306 411 317 b 472 438 460 363 472 396 l 472 507 b 377 472 433 507 402 495 b 340 375 353 449 340 417 z "},"r":{"ha":657,"x_min":0,"x_max":0,"o":"m 33 0 l 33 388 b 69 561 33 451 45 509 b 166 695 94 613 126 658 b 306 782 206 733 253 762 b 471 813 358 802 413 813 l 624 813 l 624 507 l 471 507 b 376 472 432 507 400 495 b 340 375 352 449 340 417 l 340 0 z "},"s":{"ha":813,"x_min":0,"x_max":0,"o":"m 340 375 b 377 472 340 417 353 449 b 472 507 402 495 433 507 l 779 507 l 779 813 l 471 813 b 306 784 413 813 358 803 b 166 700 253 765 206 737 b 69 563 126 663 94 617 b 33 375 45 508 33 445 z m 779 438 l 472 438 b 435 340 472 396 460 363 b 340 306 411 317 379 306 l 33 306 l 33 0 l 342 0 b 506 27 398 0 453 9 b 645 109 558 45 605 72 b 742 246 685 146 718 191 b 779 438 767 300 779 364 z "},"t":{"ha":656,"x_min":0,"x_max":0,"o":"m 33 813 l 33 425 b 69 251 33 361 45 303 b 166 117 94 200 126 155 b 306 31 206 80 253 51 b 471 0 358 10 413 0 l 471 306 b 376 340 432 306 400 317 b 340 438 352 363 340 396 l 340 507 l 622 507 l 622 813 z "},"u":{"ha":800,"x_min":0,"x_max":0,"o":"m 767 813 l 460 813 l 460 438 b 429 341 460 396 450 364 b 340 306 409 318 379 306 l 340 813 l 33 813 l 33 0 l 340 0 b 504 31 398 0 452 10 b 640 117 556 51 601 80 b 733 251 679 155 710 200 b 767 425 755 303 767 361 z "},"v":{"ha":800,"x_min":0,"x_max":0,"o":"m 767 396 b 739 260 767 347 757 302 b 665 149 720 219 696 182 b 561 61 635 115 600 86 b 443 0 522 36 483 16 l 357 0 b 238 61 316 16 277 36 b 135 149 200 86 165 115 b 61 261 104 182 80 219 b 33 396 43 303 33 348 l 33 813 l 340 813 l 340 438 b 356 365 340 411 345 386 b 399 315 366 343 380 326 l 401 315 b 444 365 420 326 434 343 b 460 438 455 386 460 411 l 460 813 l 767 813 z "},"w":{"ha":1226,"x_min":0,"x_max":0,"o":"m 767 813 l 767 306 b 856 341 806 306 835 318 b 886 438 876 364 886 396 l 886 813 l 1193 813 l 1193 425 b 1159 251 1193 361 1182 303 b 1067 117 1136 200 1106 155 b 931 31 1028 80 982 51 b 767 0 879 10 824 0 l 33 0 l 33 813 l 340 813 l 340 306 b 425 339 375 306 404 318 b 460 426 446 360 458 389 l 460 813 z "},"x":{"ha":803,"x_min":0,"x_max":0,"o":"m 461 510 l 461 813 l 768 813 l 768 500 b 744 353 768 444 760 396 b 675 235 728 311 705 272 l 769 0 l 33 0 l 128 235 b 59 353 98 272 75 311 b 35 500 43 396 35 444 l 35 813 l 342 813 l 342 510 b 401 390 342 450 362 410 b 461 510 441 410 461 450 z "},"y":{"ha":803,"x_min":0,"x_max":0,"o":"m 769 813 l 769 425 b 733 251 769 361 757 303 b 637 117 709 200 677 155 b 497 31 597 80 550 51 b 332 0 444 10 389 0 l 33 0 l 128 235 b 59 352 98 272 75 311 b 35 497 43 393 35 442 l 35 813 l 342 813 l 342 510 b 451 378 342 427 378 383 b 456 395 453 383 455 389 b 461 414 458 401 459 407 l 461 813 z "},"z":{"ha":813,"x_min":0,"x_max":0,"o":"m 340 438 l 33 438 b 69 239 33 361 45 294 b 166 103 94 183 126 138 b 306 25 206 68 253 42 b 471 0 358 8 413 0 l 779 0 l 779 306 l 472 306 b 377 340 433 306 402 317 b 340 438 353 363 340 396 z m 472 375 l 779 375 l 779 813 l 33 813 l 33 507 l 472 507 z "},"{":{"ha":801,"x_min":0,"x_max":0,"o":"m 33 813 l 767 813 l 767 497 b 742 352 767 442 759 393 b 674 235 726 311 703 272 l 768 0 l 33 0 z m 340 507 l 340 378 b 460 507 419 380 459 423 z "},"|":{"ha":374,"x_min":0,"x_max":0,"o":"m 33 -128 l 340 -128 l 340 940 l 33 940 z "},"}":{"ha":800,"x_min":0,"x_max":0,"o":"m 771 813 l 444 813 l 342 560 l 342 813 l 35 813 l 35 0 l 342 0 l 342 253 l 446 0 l 772 0 l 611 406 z "},"~":{"ha":813,"x_min":0,"x_max":0,"o":"m 779 0 l 779 813 l 33 813 l 33 497 b 69 323 33 433 45 375 b 167 189 94 271 126 226 b 307 103 207 152 254 123 b 472 74 360 84 415 74 l 472 0 z m 472 376 b 377 410 433 376 402 388 b 340 507 353 433 340 465 l 472 507 z "},"":{"ha":199,"x_min":0,"x_max":0,"o":""},"¡":{"ha":374,"x_min":0,"x_max":0,"o":"m 33 438 l 340 438 l 340 0 l 33 0 z m 340 813 l 340 507 l 33 507 l 33 813 z "},"¢":{"ha":657,"x_min":0,"x_max":0,"o":"m 522 -74 l 522 0 l 622 0 l 622 306 l 340 306 l 340 375 b 376 472 340 417 352 449 b 471 507 400 495 432 507 l 624 507 l 624 813 l 522 813 l 522 886 l 215 886 l 215 728 b 83 585 160 689 116 641 b 33 388 50 529 33 463 l 33 0 l 215 0 l 215 -74 z "},"£":{"ha":657,"x_min":0,"x_max":0,"o":"m 33 813 l 33 425 b 69 251 33 361 45 303 b 166 117 94 200 126 155 b 306 31 206 80 253 51 b 471 0 358 10 413 0 l 624 0 l 624 306 l 471 306 b 376 340 432 306 400 317 b 340 438 352 363 340 396 l 624 438 l 624 739 l 340 739 l 340 813 z "},"¤":{"ha":793,"x_min":0,"x_max":0,"o":"m 767 401 b 743 285 765 360 757 321 b 688 183 729 249 711 215 l 761 0 l 26 0 l 104 194 b 53 292 83 224 66 256 b 33 403 41 327 34 364 l 33 404 b 53 517 33 444 40 482 b 104 618 66 553 83 587 l 28 813 l 760 813 l 688 629 b 767 411 737 566 763 494 z m 399 496 b 343 406 369 478 350 448 b 399 317 350 365 369 335 l 401 317 b 457 406 431 335 450 365 b 401 496 450 448 431 478 z "},"¥":{"ha":896,"x_min":0,"x_max":0,"o":"m 342 813 l 35 813 l 35 497 b 59 352 35 442 43 393 b 128 235 75 311 98 272 l 33 0 l 768 0 l 768 97 l 863 97 l 863 376 l 768 376 l 768 435 l 863 435 l 863 714 l 768 714 l 768 813 l 461 813 l 461 378 b 372 413 422 379 393 391 b 342 510 352 436 342 468 z "},"¦":{"ha":374,"x_min":0,"x_max":0,"o":"m 340 375 l 33 375 l 33 -128 l 340 -128 z m 33 940 l 33 444 l 340 444 l 340 940 z "},"§":{"ha":793,"x_min":0,"x_max":0,"o":"m 767 401 b 735 267 765 354 754 309 b 662 153 716 225 692 187 b 560 63 632 119 598 88 b 443 0 522 37 483 16 l 26 0 l 104 194 b 53 292 83 224 66 256 b 33 403 41 327 34 364 l 33 404 b 61 540 33 452 43 498 b 135 657 80 583 104 622 b 238 749 165 692 200 723 b 357 813 277 776 316 797 l 760 813 l 688 629 b 767 411 737 566 763 494 z m 399 496 b 343 406 369 478 350 448 b 399 317 350 365 369 335 l 401 317 b 457 406 431 335 450 365 b 401 496 450 448 431 478 z "},"¨":{"ha":692,"x_min":0,"x_max":0,"o":"m 313 885 l 313 1149 l 33 1149 l 33 885 z m 658 885 l 658 1149 l 379 1149 l 379 885 z "},"©":{"ha":365,"x_min":0,"x_max":0,"o":"m 179 953 b 51 875 126 953 84 927 b 26 788 35 844 26 815 b 74 671 26 741 42 702 b 185 622 103 638 140 622 b 244 636 205 622 225 627 b 293 674 263 645 279 658 b 326 730 307 691 318 709 b 339 794 335 751 339 772 b 328 851 339 816 335 835 b 296 904 322 868 311 886 b 179 953 263 937 225 953 z m 186 921 b 231 910 201 921 216 917 b 270 883 245 903 259 894 b 298 841 282 871 291 857 b 308 788 305 825 308 807 b 271 696 308 750 296 719 b 185 656 246 669 217 656 b 94 696 149 656 119 669 b 58 788 70 720 58 750 b 93 882 58 825 70 856 b 186 921 122 908 153 921 z m 222 765 b 185 726 214 739 201 726 b 143 789 157 726 143 747 b 154 833 143 806 147 821 b 186 850 162 844 172 850 b 222 819 202 850 214 840 l 254 828 b 186 879 243 862 220 879 b 129 855 162 879 143 871 b 108 788 115 839 108 816 b 129 720 108 759 115 736 b 186 696 143 704 162 696 b 254 753 220 696 243 715 z "},"ª":{"ha":800,"x_min":0,"x_max":0,"o":"m 767 0 l 767 417 b 739 551 767 465 757 509 b 665 663 720 592 696 629 b 561 751 635 696 600 725 b 443 813 522 776 483 797 l 357 813 b 238 751 316 797 277 776 b 135 663 200 726 165 697 b 61 551 104 629 80 592 b 33 417 43 509 33 465 l 33 0 z m 340 306 l 340 375 b 356 448 340 402 345 426 b 399 497 366 470 380 486 l 401 497 b 444 448 420 486 434 470 b 460 375 455 426 460 402 l 460 306 z "},"«":{"ha":640,"x_min":0,"x_max":0,"o":"m 607 94 l 343 171 l 343 643 l 607 719 l 607 443 l 486 407 l 607 371 z m 297 94 l 33 171 l 33 643 l 297 719 l 297 443 l 176 407 l 297 371 z "},"¬":{"ha":517,"x_min":0,"x_max":0,"o":"m 33 558 l 33 253 l 178 253 l 178 160 l 483 160 l 483 558 z "},"­":{"ha":374,"x_min":0,"x_max":0,"o":"m 340 253 l 340 558 l 33 558 l 33 253 z "},"®":{"ha":365,"x_min":0,"x_max":0,"o":"m 179 954 b 109 937 155 954 132 948 b 51 878 86 925 67 906 b 26 789 35 848 26 819 b 74 672 26 743 42 704 b 185 624 103 640 140 624 b 244 637 205 624 225 628 b 293 672 263 646 279 657 b 326 725 307 687 318 705 b 339 789 335 745 339 767 b 326 853 339 811 335 832 b 292 906 318 873 307 891 b 242 941 278 920 261 932 b 179 954 222 950 201 954 z m 186 922 b 228 914 200 923 214 920 b 267 885 243 907 256 898 b 297 842 279 873 289 858 b 308 789 304 825 308 807 b 269 696 308 752 295 721 b 185 657 246 670 218 657 b 92 694 146 657 115 669 b 58 789 70 718 58 750 b 93 883 58 826 70 857 b 186 922 116 909 147 922 z m 115 700 l 149 700 l 149 774 l 158 774 b 170 771 162 774 166 773 b 183 765 174 769 179 767 b 204 728 187 760 194 747 l 218 700 l 260 700 l 242 738 b 226 759 234 747 229 754 l 221 767 b 204 776 215 772 210 775 b 249 828 234 784 249 801 b 236 863 249 842 244 853 b 193 876 228 872 213 876 l 115 876 z m 149 801 l 149 849 l 179 849 b 214 825 202 849 214 841 b 176 801 214 809 201 801 z "},"¯":{"ha":589,"x_min":0,"x_max":0,"o":"m 33 813 l 556 813 l 556 507 l 33 507 z "},"°":{"ha":346,"x_min":0,"x_max":0,"o":"m 313 885 l 313 1149 l 33 1149 l 33 885 z m 136 989 l 136 1044 l 210 1044 l 210 989 z "},"±":{"ha":558,"x_min":0,"x_max":0,"o":"m 33 661 l 33 358 l 525 358 l 525 661 l 432 661 l 432 751 l 126 751 l 126 661 z m 33 303 l 33 0 l 525 0 l 525 303 z "},"²":{"ha":476,"x_min":0,"x_max":0,"o":"m 275 699 l 443 699 b 424 796 443 734 437 766 b 371 872 411 825 393 851 b 294 922 349 894 323 910 b 203 940 265 934 234 940 l 33 940 l 33 772 l 201 772 b 254 753 223 772 240 766 b 275 699 268 741 275 723 z m 201 733 l 33 733 l 33 493 l 443 493 l 443 661 l 201 661 z "},"³":{"ha":392,"x_min":0,"x_max":0,"o":"m 358 940 l 358 735 b 338 638 358 700 352 667 b 285 562 325 609 307 584 b 208 511 263 540 237 523 b 117 493 178 499 148 493 l 33 493 l 33 661 l 117 661 b 169 680 138 661 155 667 b 189 733 182 692 189 710 l 33 733 l 33 900 l 189 900 l 189 940 z "},"´":{"ha":333,"x_min":0,"x_max":0,"o":"m 107 1149 l 33 885 l 300 885 l 383 1149 z "},"µ":{"ha":800,"x_min":0,"x_max":0,"o":"m 340 -128 l 340 17 b 460 0 377 6 417 0 l 767 0 l 767 813 l 460 813 l 460 306 b 371 341 421 306 391 318 b 340 438 350 364 340 396 l 340 813 l 33 813 l 33 -128 z "},"¶":{"ha":819,"x_min":0,"x_max":0,"o":"m 479 507 l 479 -75 l 786 -75 l 786 813 l 33 813 l 33 425 b 58 292 33 375 42 331 b 124 182 75 254 97 217 l 124 -75 l 431 -75 l 431 507 z "},"·":{"ha":374,"x_min":0,"x_max":0,"o":"m 340 253 l 340 558 l 33 558 l 33 253 z "},"¸":{"ha":374,"x_min":0,"x_max":0,"o":"m 340 -128 l 340 21 l 33 21 l 33 0 l -21 -128 z "},"¹":{"ha":286,"x_min":0,"x_max":0,"o":"m 85 493 l 85 772 l 33 772 l 33 940 l 253 940 l 253 493 z "},"º":{"ha":476,"x_min":0,"x_max":0,"o":"m 33 493 l 33 697 b 53 794 33 732 40 765 b 106 872 66 824 83 850 b 182 922 128 893 153 910 b 274 940 211 934 241 940 l 443 940 l 443 735 b 424 638 443 700 437 667 b 371 562 411 609 393 584 b 294 511 349 540 323 523 b 203 493 265 499 234 493 z m 201 699 l 201 661 b 254 680 223 661 240 667 b 275 733 268 692 275 710 l 275 772 b 222 753 254 772 236 766 b 201 699 208 741 201 723 z "},"»":{"ha":640,"x_min":0,"x_max":0,"o":"m 33 94 l 297 171 l 297 643 l 33 719 l 33 443 l 154 407 l 33 371 z m 343 94 l 607 171 l 607 643 l 343 719 l 343 443 l 464 407 l 343 371 z "},"¼":{"ha":1126,"x_min":0,"x_max":0,"o":"m 925 447 l 1093 447 l 1093 0 l 925 0 l 925 40 b 834 57 894 40 863 46 b 757 105 805 68 779 84 b 703 179 735 126 717 150 b 683 275 690 208 683 240 l 683 447 l 851 447 l 851 279 b 872 226 851 256 858 238 b 925 207 886 213 904 207 z m 447 0 l 156 0 l 488 813 l 779 813 z m 85 365 l 85 644 l 33 644 l 33 813 l 253 813 l 253 365 z "},"½":{"ha":1126,"x_min":0,"x_max":0,"o":"m 253 365 l 253 813 l 33 813 l 33 644 l 85 644 l 85 365 z m 779 813 l 488 813 l 156 0 l 447 0 z m 925 206 l 1093 206 b 1070 318 1091 250 1084 288 b 1017 392 1057 349 1039 373 b 942 434 996 411 971 425 b 853 447 914 443 884 447 l 683 447 l 683 279 l 851 279 b 904 260 873 279 890 273 b 925 206 918 248 925 230 z m 851 240 l 683 240 l 683 0 l 1093 0 l 1093 168 l 851 168 z "},"¾":{"ha":1157,"x_min":0,"x_max":0,"o":"m 189 813 l 189 772 l 33 772 l 33 606 l 189 606 b 169 552 189 582 182 565 b 117 533 155 540 138 533 l 33 533 l 33 365 l 117 365 b 208 383 148 365 178 371 b 285 431 237 394 263 410 b 338 504 307 451 325 475 b 358 600 352 533 358 565 l 358 813 z m 810 813 l 518 813 l 186 0 l 478 0 z m 956 207 b 903 226 934 207 917 213 b 882 279 889 238 882 256 l 882 447 l 714 447 l 714 275 b 734 179 714 240 721 208 b 788 105 747 150 765 126 b 865 57 810 84 835 68 b 956 40 894 46 924 40 l 956 0 l 1124 0 l 1124 447 l 956 447 z "},"¿":{"ha":813,"x_min":0,"x_max":0,"o":"m 340 813 l 340 507 l 647 507 l 647 813 z m 340 438 l 33 438 b 69 253 33 369 45 308 b 166 116 94 199 126 153 b 306 30 206 78 253 50 b 471 0 358 10 413 0 l 779 0 l 779 306 l 472 306 b 377 340 433 306 402 317 b 340 438 353 363 340 396 z "},"À":{"ha":813,"x_min":0,"x_max":0,"o":"m 200 1149 l 283 885 l 550 885 l 476 1149 z m 340 375 b 377 472 340 417 353 449 b 472 507 402 495 433 507 l 472 0 l 779 0 l 779 813 l 471 813 b 306 782 413 813 358 802 b 166 696 253 762 206 733 b 69 563 126 659 94 614 b 33 389 45 511 33 453 l 33 0 l 411 0 l 411 306 l 340 306 z "},"Á":{"ha":813,"x_min":0,"x_max":0,"o":"m 335 1149 l 261 885 l 528 885 l 611 1149 z m 340 375 b 377 472 340 417 353 449 b 472 507 402 495 433 507 l 472 0 l 779 0 l 779 813 l 471 813 b 306 782 413 813 358 802 b 166 695 253 762 206 733 b 69 561 126 658 94 613 b 33 388 45 509 33 451 l 33 0 l 411 0 l 411 306 l 340 306 z "},"Â":{"ha":813,"x_min":0,"x_max":0,"o":"m 718 885 l 642 1149 l 169 1149 l 93 885 l 369 885 l 406 1006 l 442 885 z m 340 375 b 377 472 340 417 353 449 b 472 507 402 495 433 507 l 472 0 l 779 0 l 779 813 l 471 813 b 306 782 413 813 358 802 b 166 695 253 762 206 733 b 69 561 126 658 94 613 b 33 388 45 509 33 451 l 33 0 l 411 0 l 411 306 l 340 306 z "},"Ã":{"ha":813,"x_min":0,"x_max":0,"o":"m 686 885 l 763 1149 l 486 1149 l 450 1028 l 414 1149 l 125 1149 l 49 885 l 325 885 l 361 1006 l 397 885 z m 340 375 b 377 472 340 417 353 449 b 472 507 402 495 433 507 l 472 0 l 779 0 l 779 813 l 471 813 b 306 782 413 813 358 802 b 166 695 253 762 206 733 b 69 561 126 658 94 613 b 33 388 45 509 33 451 l 33 0 l 411 0 l 411 306 l 340 306 z "},"Ä":{"ha":813,"x_min":0,"x_max":0,"o":"m 372 885 l 372 1149 l 93 1149 l 93 885 z m 718 885 l 718 1149 l 439 1149 l 439 885 z m 340 375 b 377 472 340 417 353 449 b 472 507 402 495 433 507 l 472 0 l 779 0 l 779 813 l 471 813 b 306 782 413 813 358 802 b 166 695 253 762 206 733 b 69 561 126 658 94 613 b 33 388 45 509 33 451 l 33 0 l 411 0 l 411 306 l 340 306 z "},"Å":{"ha":813,"x_min":0,"x_max":0,"o":"m 546 885 l 546 1149 l 267 1149 l 267 885 z m 369 989 l 369 1044 l 443 1044 l 443 989 z m 340 375 b 377 472 340 417 353 449 b 472 507 402 495 433 507 l 472 0 l 779 0 l 779 813 l 471 813 b 306 782 413 813 358 802 b 166 695 253 762 206 733 b 69 561 126 658 94 613 b 33 388 45 509 33 451 l 33 0 l 411 0 l 411 306 l 340 306 z "},"Æ":{"ha":1251,"x_min":0,"x_max":0,"o":"m 340 306 l 340 375 b 377 472 340 417 353 449 b 472 507 402 495 433 507 l 472 0 l 1218 0 l 1218 306 l 779 306 l 779 381 b 816 475 779 422 791 454 b 911 507 841 496 872 507 l 911 438 b 899 374 911 413 907 391 l 1218 374 l 1218 813 l 471 813 b 306 782 413 813 358 802 b 166 695 253 762 206 733 b 69 561 126 658 94 613 b 33 388 45 509 33 451 l 33 0 l 413 0 l 413 306 z "},"Ç":{"ha":657,"x_min":0,"x_max":0,"o":"m 508 -128 l 508 0 l 624 0 l 624 306 l 465 306 b 374 340 426 306 396 317 b 340 438 351 363 340 396 l 340 507 l 622 507 l 622 813 l 33 813 l 33 436 b 79 240 33 363 49 297 b 201 93 110 182 150 133 l 201 0 l 147 -128 z "},"È":{"ha":813,"x_min":0,"x_max":0,"o":"m 476 1149 l 550 885 l 283 885 l 200 1149 z m 33 388 b 69 561 33 451 45 509 b 166 695 94 613 126 658 b 306 782 206 733 253 762 b 471 813 358 802 413 813 l 779 813 l 779 374 l 460 374 b 472 438 468 391 472 413 l 472 507 b 377 472 433 507 402 495 b 340 375 353 449 340 417 l 340 306 l 779 306 l 779 0 l 33 0 z "},"É":{"ha":813,"x_min":0,"x_max":0,"o":"m 611 1149 l 528 885 l 261 885 l 335 1149 z m 33 388 b 69 561 33 451 45 509 b 166 695 94 613 126 658 b 306 782 206 733 253 762 b 471 813 358 802 413 813 l 779 813 l 779 374 l 460 374 b 472 438 468 391 472 413 l 472 507 b 377 472 433 507 402 495 b 340 375 353 449 340 417 l 340 306 l 779 306 l 779 0 l 33 0 z "},"Ê":{"ha":813,"x_min":0,"x_max":0,"o":"m 442 885 l 406 1006 l 369 885 l 93 885 l 169 1149 l 642 1149 l 718 885 z m 33 388 b 69 561 33 451 45 509 b 166 695 94 613 126 658 b 306 782 206 733 253 762 b 471 813 358 802 413 813 l 779 813 l 779 374 l 460 374 b 472 438 468 391 472 413 l 472 507 b 377 472 433 507 402 495 b 340 375 353 449 340 417 l 340 306 l 779 306 l 779 0 l 33 0 z "},"Ë":{"ha":813,"x_min":0,"x_max":0,"o":"m 439 885 l 439 1149 l 718 1149 l 718 885 z m 93 885 l 93 1149 l 372 1149 l 372 885 z m 33 388 b 69 561 33 451 45 509 b 166 695 94 613 126 658 b 306 782 206 733 253 762 b 471 813 358 802 413 813 l 779 813 l 779 374 l 460 374 b 472 438 468 391 472 413 l 472 507 b 377 472 433 507 402 495 b 340 375 353 449 340 417 l 340 306 l 779 306 l 779 0 l 33 0 z "},"Ì":{"ha":374,"x_min":0,"x_max":0,"o":"m -4 1149 l 79 885 l 346 885 l 272 1149 z m 33 0 l 340 0 l 340 813 l 33 813 z "},"Í":{"ha":374,"x_min":0,"x_max":0,"o":"m 100 1149 l 26 885 l 293 885 l 376 1149 z m 33 0 l 340 0 l 340 813 l 33 813 z "},"Î":{"ha":374,"x_min":0,"x_max":0,"o":"m 500 885 l 424 1149 l -49 1149 l -125 885 l 151 885 l 188 1006 l 224 885 z m 33 0 l 340 0 l 340 813 l 33 813 z "},"Ï":{"ha":374,"x_min":0,"x_max":0,"o":"m 154 885 l 154 1149 l -125 1149 l -125 885 z m 500 885 l 500 1149 l 221 1149 l 221 885 z m 33 0 l 340 0 l 340 813 l 33 813 z "},"Ð":{"ha":900,"x_min":0,"x_max":0,"o":"m 33 558 l 33 253 l 121 253 l 121 0 l 429 0 b 594 31 487 0 542 10 b 734 117 647 51 694 80 b 831 251 774 155 806 200 b 867 425 855 303 867 361 l 867 813 l 121 813 l 121 558 z m 428 507 l 560 507 l 560 438 b 523 340 560 396 547 363 b 428 306 498 317 467 306 z "},"Ñ":{"ha":800,"x_min":0,"x_max":0,"o":"m 681 885 l 757 1149 l 481 1149 l 444 1028 l 408 1149 l 119 1149 l 43 885 l 319 885 l 356 1006 l 392 885 z m 33 0 l 340 0 l 340 375 b 371 472 340 417 350 449 b 460 507 391 494 421 506 l 460 0 l 767 0 l 767 813 l 460 813 b 296 782 402 813 348 802 b 160 695 244 762 199 733 b 67 561 121 658 90 613 b 33 388 45 509 33 451 z "},"Ò":{"ha":813,"x_min":0,"x_max":0,"o":"m 497 375 b 460 472 497 417 485 449 b 365 507 436 495 404 507 l 365 438 b 402 340 365 396 378 363 b 497 306 427 317 458 306 z m 478 1149 l 551 885 l 285 885 l 201 1149 z m 471 0 b 306 33 413 0 358 11 b 166 123 253 54 206 84 b 69 260 126 161 94 207 b 33 436 45 314 33 372 l 33 813 l 342 813 b 507 780 399 813 454 802 b 647 690 560 758 606 728 b 743 552 687 651 719 605 b 779 376 767 499 779 440 l 779 0 z "},"Ó":{"ha":813,"x_min":0,"x_max":0,"o":"m 613 1149 l 529 885 l 263 885 l 336 1149 z m 472 375 b 435 472 472 417 460 449 b 340 507 411 495 379 507 l 340 438 b 377 340 340 396 353 363 b 472 306 402 317 433 306 z m 471 0 b 306 31 413 0 358 10 b 166 117 253 51 206 80 b 69 250 126 154 94 198 b 33 424 45 302 33 360 l 33 813 l 342 813 b 507 782 399 813 454 802 b 647 695 560 762 606 733 b 743 561 687 658 719 613 b 779 388 767 509 779 451 l 779 0 z "},"Ô":{"ha":813,"x_min":0,"x_max":0,"o":"m 94 885 l 171 1149 l 643 1149 l 719 885 l 443 885 l 407 1006 l 371 885 z m 472 375 b 435 472 472 417 460 449 b 340 507 411 495 379 507 l 340 438 b 377 340 340 396 353 363 b 472 306 402 317 433 306 z m 471 0 b 306 31 413 0 358 10 b 166 117 253 51 206 80 b 69 251 126 155 94 200 b 33 425 45 303 33 361 l 33 813 l 342 813 b 507 782 399 813 454 802 b 647 695 560 762 606 733 b 743 561 687 658 719 613 b 779 388 767 509 779 451 l 779 0 z "},"Õ":{"ha":813,"x_min":0,"x_max":0,"o":"m 397 885 l 361 1006 l 325 885 l 49 885 l 125 1149 l 414 1149 l 450 1028 l 486 1149 l 763 1149 l 686 885 z m 472 375 b 435 472 472 417 460 449 b 340 507 411 495 379 507 l 340 438 b 377 340 340 396 353 363 b 472 306 402 317 433 306 z m 471 0 b 306 31 413 0 358 10 b 166 117 253 51 206 80 b 69 251 126 155 94 200 b 33 425 45 303 33 361 l 33 813 l 342 813 b 507 782 399 813 454 802 b 647 696 560 762 606 733 b 743 563 687 659 719 614 b 779 389 767 511 779 453 l 779 0 z "},"Ö":{"ha":813,"x_min":0,"x_max":0,"o":"m 440 885 l 440 1149 l 719 1149 l 719 885 z m 94 885 l 94 1149 l 374 1149 l 374 885 z m 472 375 b 435 472 472 417 460 449 b 340 507 411 495 379 507 l 340 438 b 377 340 340 396 353 363 b 472 306 402 317 433 306 z m 471 0 b 306 31 413 0 358 10 b 166 117 253 51 206 80 b 69 251 126 155 94 200 b 33 425 45 303 33 361 l 33 813 l 342 813 b 507 782 399 813 454 802 b 647 695 560 762 606 733 b 743 561 687 658 719 613 b 779 388 767 509 779 451 l 779 0 z "},"×":{"ha":790,"x_min":0,"x_max":0,"o":"m 761 813 l 600 406 l 763 0 l 439 0 l 394 106 l 351 0 l 28 0 l 190 406 l 29 813 l 353 813 l 394 708 l 438 813 z "},"Ø":{"ha":813,"x_min":0,"x_max":0,"o":"m 471 0 b 306 31 413 0 358 10 b 166 117 253 51 206 80 b 69 251 126 155 94 200 b 33 425 45 303 33 361 l 33 813 l 342 813 b 507 782 399 813 454 802 b 647 695 560 762 606 733 b 743 561 687 658 719 613 b 779 388 767 509 779 451 l 779 0 z m 472 375 l 472 390 l 396 326 b 472 306 416 313 442 306 z m 340 507 l 340 438 b 342 421 340 427 341 422 l 414 489 b 340 507 394 501 369 507 z "},"Ù":{"ha":800,"x_min":0,"x_max":0,"o":"m 471 1149 l 544 885 l 278 885 l 194 1149 z m 33 813 l 340 813 l 340 438 b 371 341 340 396 350 364 b 460 306 391 318 421 306 l 460 813 l 767 813 l 767 0 l 460 0 b 296 31 402 0 348 10 b 160 117 244 51 199 80 b 67 251 121 155 90 200 b 33 425 45 303 33 361 z "},"Ú":{"ha":800,"x_min":0,"x_max":0,"o":"m 606 1149 l 522 885 l 256 885 l 329 1149 z m 33 813 l 340 813 l 340 438 b 371 341 340 396 350 364 b 460 306 391 318 421 306 l 460 813 l 767 813 l 767 0 l 460 0 b 296 31 402 0 348 10 b 160 117 244 51 199 80 b 67 251 121 155 90 200 b 33 425 45 303 33 361 z "},"Û":{"ha":800,"x_min":0,"x_max":0,"o":"m 88 885 l 164 1149 l 636 1149 l 713 885 l 436 885 l 400 1006 l 364 885 z m 33 813 l 340 813 l 340 438 b 371 341 340 396 350 364 b 460 306 391 318 421 306 l 460 813 l 767 813 l 767 0 l 460 0 b 296 31 402 0 348 10 b 160 117 244 51 199 80 b 67 251 121 155 90 200 b 33 425 45 303 33 361 z "},"Ü":{"ha":800,"x_min":0,"x_max":0,"o":"m 433 885 l 433 1149 l 713 1149 l 713 885 z m 88 885 l 88 1149 l 367 1149 l 367 885 z m 33 813 l 340 813 l 340 438 b 371 341 340 396 350 364 b 460 306 391 318 421 306 l 460 813 l 767 813 l 767 0 l 460 0 b 296 31 402 0 348 10 b 160 117 244 51 199 80 b 67 251 121 155 90 200 b 33 425 45 303 33 361 z "},"Ý":{"ha":803,"x_min":0,"x_max":0,"o":"m 606 1149 l 522 885 l 256 885 l 329 1149 z m 342 813 l 342 510 b 372 413 342 468 352 436 b 461 378 393 391 422 379 l 461 813 l 768 813 l 768 0 l 33 0 l 128 235 b 59 352 98 272 75 311 b 35 497 43 393 35 442 l 35 813 z "},"Þ":{"ha":813,"x_min":0,"x_max":0,"o":"m 340 888 l 340 813 l 342 813 b 507 782 399 813 454 802 b 647 695 560 762 606 733 b 743 561 687 658 719 613 b 779 388 767 509 779 451 l 779 0 l 340 0 l 340 -75 l 33 -75 l 33 888 z m 472 306 l 472 375 b 435 472 472 417 460 449 b 340 507 411 495 379 507 l 340 306 z "},"ß":{"ha":803,"x_min":0,"x_max":0,"o":"m 33 0 l 769 0 l 675 235 b 744 358 705 272 728 313 b 768 508 760 403 768 453 l 768 813 l 471 813 b 306 780 413 813 358 802 b 166 690 253 758 206 728 b 69 552 126 651 94 605 b 33 376 45 499 33 440 z m 403 392 b 374 413 392 396 382 403 b 356 443 366 422 360 432 b 461 507 376 483 411 504 b 403 392 459 448 440 409 z "},"à":{"ha":813,"x_min":0,"x_max":0,"o":"m 200 1149 l 283 885 l 550 885 l 476 1149 z m 33 438 b 69 238 33 360 45 293 b 166 101 94 182 126 137 b 306 24 206 66 253 41 b 471 0 358 8 413 0 l 779 0 l 779 388 b 743 561 779 451 767 509 b 647 695 719 613 687 658 b 507 782 606 733 560 762 b 342 813 454 802 399 813 l 33 813 l 33 507 l 340 507 b 435 472 379 507 411 495 b 472 375 460 449 472 417 l 472 306 b 377 340 433 306 402 317 b 340 438 353 363 340 396 z "},"á":{"ha":813,"x_min":0,"x_max":0,"o":"m 335 1149 l 261 885 l 528 885 l 611 1149 z m 33 438 b 69 238 33 360 45 293 b 166 101 94 182 126 137 b 306 24 206 66 253 41 b 471 0 358 8 413 0 l 779 0 l 779 388 b 743 561 779 451 767 509 b 647 695 719 613 687 658 b 507 782 606 733 560 762 b 342 813 454 802 399 813 l 33 813 l 33 507 l 340 507 b 435 472 379 507 411 495 b 472 375 460 449 472 417 l 472 306 b 377 340 433 306 402 317 b 340 438 353 363 340 396 z "},"â":{"ha":813,"x_min":0,"x_max":0,"o":"m 718 885 l 642 1149 l 169 1149 l 93 885 l 369 885 l 406 1006 l 442 885 z m 33 438 b 69 238 33 360 45 293 b 166 101 94 182 126 137 b 306 24 206 66 253 41 b 471 0 358 8 413 0 l 779 0 l 779 388 b 743 561 779 451 767 509 b 647 695 719 613 687 658 b 507 782 606 733 560 762 b 342 813 454 802 399 813 l 33 813 l 33 507 l 340 507 b 435 472 379 507 411 495 b 472 375 460 449 472 417 l 472 306 b 377 340 433 306 402 317 b 340 438 353 363 340 396 z "},"ã":{"ha":813,"x_min":0,"x_max":0,"o":"m 686 885 l 763 1149 l 486 1149 l 450 1028 l 414 1149 l 125 1149 l 49 885 l 325 885 l 361 1006 l 397 885 z m 33 438 b 69 238 33 360 45 293 b 166 101 94 182 126 137 b 306 24 206 66 253 41 b 471 0 358 8 413 0 l 779 0 l 779 388 b 743 561 779 451 767 509 b 647 695 719 613 687 658 b 507 782 606 733 560 762 b 342 813 454 802 399 813 l 33 813 l 33 507 l 340 507 b 435 472 379 507 411 495 b 472 375 460 449 472 417 l 472 306 b 377 340 433 306 402 317 b 340 438 353 363 340 396 z "},"ä":{"ha":813,"x_min":0,"x_max":0,"o":"m 372 885 l 372 1149 l 93 1149 l 93 885 z m 718 885 l 718 1149 l 439 1149 l 439 885 z m 33 438 b 69 238 33 360 45 293 b 166 101 94 182 126 137 b 306 24 206 66 253 41 b 471 0 358 8 413 0 l 779 0 l 779 388 b 743 561 779 451 767 509 b 647 695 719 613 687 658 b 507 782 606 733 560 762 b 342 813 454 802 399 813 l 33 813 l 33 507 l 340 507 b 435 472 379 507 411 495 b 472 375 460 449 472 417 l 472 306 b 377 340 433 306 402 317 b 340 438 353 363 340 396 z "},"å":{"ha":813,"x_min":0,"x_max":0,"o":"m 546 885 l 546 1149 l 267 1149 l 267 885 z m 369 989 l 369 1044 l 443 1044 l 443 989 z m 33 438 b 69 238 33 360 45 293 b 166 101 94 182 126 137 b 306 24 206 66 253 41 b 471 0 358 8 413 0 l 779 0 l 779 388 b 743 561 779 451 767 509 b 647 695 719 613 687 658 b 507 782 606 733 560 762 b 342 813 454 802 399 813 l 33 813 l 33 507 l 340 507 b 435 472 379 507 411 495 b 472 375 460 449 472 417 l 472 306 b 377 340 433 306 402 317 b 340 438 353 363 340 396 z "},"æ":{"ha":1251,"x_min":0,"x_max":0,"o":"m 911 375 l 1218 375 b 1181 563 1218 445 1206 508 b 1084 700 1157 617 1124 663 b 944 784 1044 737 997 765 b 781 813 892 803 837 813 l 33 813 l 33 507 l 340 507 b 435 472 379 507 411 495 b 472 375 460 449 472 417 l 472 306 b 377 340 433 306 402 317 b 340 438 353 363 340 396 l 33 438 b 69 253 33 369 45 308 b 166 116 94 199 126 153 b 306 30 206 78 253 50 b 471 0 358 10 413 0 l 1218 0 l 1218 306 l 911 306 b 816 340 872 306 841 317 b 779 438 791 363 779 396 l 779 507 b 874 472 818 507 850 495 b 911 375 899 449 911 417 z "},"ç":{"ha":657,"x_min":0,"x_max":0,"o":"m 508 -128 l 508 0 l 622 0 l 622 306 l 340 306 l 340 375 b 376 472 340 417 352 449 b 471 507 400 495 432 507 l 624 507 l 624 813 l 471 813 b 306 780 413 813 358 802 b 166 690 253 758 206 728 b 69 552 126 651 94 605 b 33 376 45 499 33 440 l 33 0 l 201 0 l 147 -128 z "},"è":{"ha":813,"x_min":0,"x_max":0,"o":"m 200 1149 l 283 885 l 550 885 l 476 1149 z m 779 375 b 742 574 779 453 767 519 b 645 710 718 629 685 675 b 506 788 605 746 558 772 b 342 813 453 804 398 813 l 33 813 l 33 425 b 69 251 33 361 45 303 b 166 117 94 200 126 155 b 306 31 206 80 253 51 b 471 0 358 10 413 0 l 779 0 l 779 306 l 472 306 b 377 340 433 306 402 317 b 340 438 353 363 340 396 l 340 507 b 435 472 379 507 411 495 b 472 375 460 449 472 417 z "},"é":{"ha":813,"x_min":0,"x_max":0,"o":"m 335 1149 l 261 885 l 528 885 l 611 1149 z m 779 375 b 742 574 779 453 767 519 b 645 710 718 629 685 675 b 506 788 605 746 558 772 b 342 813 453 804 398 813 l 33 813 l 33 425 b 69 251 33 361 45 303 b 166 117 94 200 126 155 b 306 31 206 80 253 51 b 471 0 358 10 413 0 l 779 0 l 779 306 l 472 306 b 377 340 433 306 402 317 b 340 438 353 363 340 396 l 340 507 b 435 472 379 507 411 495 b 472 375 460 449 472 417 z "},"ê":{"ha":813,"x_min":0,"x_max":0,"o":"m 718 885 l 642 1149 l 169 1149 l 93 885 l 369 885 l 406 1006 l 442 885 z m 779 375 b 742 574 779 453 767 519 b 645 710 718 629 685 675 b 506 788 605 746 558 772 b 342 813 453 804 398 813 l 33 813 l 33 425 b 69 251 33 361 45 303 b 166 117 94 200 126 155 b 306 31 206 80 253 51 b 471 0 358 10 413 0 l 779 0 l 779 306 l 472 306 b 377 340 433 306 402 317 b 340 438 353 363 340 396 l 340 507 b 435 472 379 507 411 495 b 472 375 460 449 472 417 z "},"ë":{"ha":813,"x_min":0,"x_max":0,"o":"m 372 885 l 372 1149 l 93 1149 l 93 885 z m 718 885 l 718 1149 l 439 1149 l 439 885 z m 779 375 b 742 574 779 453 767 519 b 645 710 718 629 685 675 b 506 788 605 746 558 772 b 342 813 453 804 398 813 l 33 813 l 33 425 b 69 251 33 361 45 303 b 166 117 94 200 126 155 b 306 31 206 80 253 51 b 471 0 358 10 413 0 l 779 0 l 779 306 l 472 306 b 377 340 433 306 402 317 b 340 438 353 363 340 396 l 340 507 b 435 472 379 507 411 495 b 472 375 460 449 472 417 z "},"ì":{"ha":374,"x_min":0,"x_max":0,"o":"m -4 1149 l 79 885 l 346 885 l 272 1149 z m 33 0 l 340 0 l 340 813 l 33 813 z "},"í":{"ha":374,"x_min":0,"x_max":0,"o":"m 100 1149 l 26 885 l 293 885 l 376 1149 z m 33 0 l 340 0 l 340 813 l 33 813 z "},"î":{"ha":374,"x_min":0,"x_max":0,"o":"m 500 885 l 424 1149 l -49 1149 l -125 885 l 151 885 l 188 1006 l 224 885 z m 33 0 l 340 0 l 340 813 l 33 813 z "},"ï":{"ha":374,"x_min":0,"x_max":0,"o":"m 154 885 l 154 1149 l -125 1149 l -125 885 z m 500 885 l 500 1149 l 221 1149 l 221 885 z m 33 0 l 340 0 l 340 813 l 33 813 z "},"ð":{"ha":813,"x_min":0,"x_max":0,"o":"m 33 -74 l 33 388 b 69 561 33 451 45 509 b 166 695 94 613 126 658 b 306 782 206 733 253 762 b 471 813 358 802 413 813 l 779 813 l 779 425 b 743 251 779 361 767 303 b 647 117 719 200 687 155 b 507 31 606 80 560 51 b 342 0 454 10 399 0 l 340 0 l 340 -74 z m 340 375 l 340 306 b 435 340 379 306 411 317 b 472 438 460 363 472 396 l 472 507 b 377 472 433 507 402 495 b 340 375 353 449 340 417 z "},"ñ":{"ha":800,"x_min":0,"x_max":0,"o":"m 681 885 l 757 1149 l 481 1149 l 444 1028 l 408 1149 l 119 1149 l 43 885 l 319 885 l 356 1006 l 392 885 z m 767 388 b 733 561 767 451 755 509 b 640 695 710 613 679 658 b 504 782 601 733 556 762 b 340 813 452 802 398 813 l 33 813 l 33 0 l 340 0 l 340 507 b 429 472 379 506 409 494 b 460 375 450 449 460 417 l 460 0 l 767 0 z "},"ò":{"ha":813,"x_min":0,"x_max":0,"o":"m 200 1149 l 283 885 l 550 885 l 476 1149 z m 340 375 b 377 472 340 417 353 449 b 472 507 402 495 433 507 l 472 438 b 435 340 472 396 460 363 b 340 306 411 317 379 306 z m 342 0 b 507 31 399 0 454 10 b 647 117 560 51 606 80 b 743 251 687 155 719 200 b 779 425 767 303 779 361 l 779 813 l 471 813 b 306 782 413 813 358 802 b 166 695 253 762 206 733 b 69 561 126 658 94 613 b 33 388 45 509 33 451 l 33 0 z "},"ó":{"ha":813,"x_min":0,"x_max":0,"o":"m 315 375 b 352 472 315 417 328 449 b 447 507 377 495 408 507 l 447 438 b 410 340 447 396 435 363 b 315 306 386 317 354 306 z m 335 1149 l 261 885 l 528 885 l 611 1149 z m 342 0 b 507 31 399 0 454 10 b 647 117 560 51 606 80 b 743 251 687 155 719 200 b 779 425 767 303 779 361 l 779 813 l 471 813 b 306 782 413 813 358 802 b 166 695 253 762 206 733 b 69 561 126 658 94 613 b 33 388 45 509 33 451 l 33 0 z "},"ô":{"ha":813,"x_min":0,"x_max":0,"o":"m 340 375 b 377 472 340 417 353 449 b 472 507 402 495 433 507 l 472 438 b 435 340 472 396 460 363 b 340 306 411 317 379 306 z m 342 0 b 507 31 399 0 454 10 b 647 117 560 51 606 80 b 743 251 687 155 719 200 b 779 425 767 303 779 361 l 779 813 l 471 813 b 306 782 413 813 358 802 b 166 695 253 762 206 733 b 69 561 126 658 94 613 b 33 388 45 509 33 451 l 33 0 z m 718 885 l 642 1149 l 169 1149 l 93 885 l 369 885 l 406 1006 l 442 885 z "},"õ":{"ha":813,"x_min":0,"x_max":0,"o":"m 686 885 l 763 1149 l 486 1149 l 450 1028 l 414 1149 l 125 1149 l 49 885 l 325 885 l 361 1006 l 397 885 z m 340 375 b 377 472 340 417 353 449 b 472 507 402 495 433 507 l 472 438 b 435 340 472 396 460 363 b 340 306 411 317 379 306 z m 342 0 b 507 31 399 0 454 10 b 647 117 560 51 606 80 b 743 251 687 155 719 200 b 779 425 767 303 779 361 l 779 813 l 471 813 b 306 782 413 813 358 802 b 166 695 253 762 206 733 b 69 561 126 658 94 613 b 33 388 45 509 33 451 l 33 0 z "},"ö":{"ha":813,"x_min":0,"x_max":0,"o":"m 372 885 l 372 1149 l 93 1149 l 93 885 z m 718 885 l 718 1149 l 439 1149 l 439 885 z m 340 375 b 377 472 340 417 353 449 b 472 507 402 495 433 507 l 472 438 b 435 340 472 396 460 363 b 340 306 411 317 379 306 z m 342 0 b 507 31 399 0 454 10 b 647 117 560 51 606 80 b 743 251 687 155 719 200 b 779 425 767 303 779 361 l 779 813 l 471 813 b 306 782 413 813 358 802 b 166 695 253 762 206 733 b 69 561 126 658 94 613 b 33 388 45 509 33 451 l 33 0 z "},"÷":{"ha":589,"x_min":0,"x_max":0,"o":"m 408 589 l 408 813 l 178 813 l 178 589 z m 408 0 l 408 224 l 178 224 l 178 0 z m 33 267 l 556 267 l 556 546 l 33 546 z "},"ø":{"ha":813,"x_min":0,"x_max":0,"o":"m 342 0 b 507 31 399 0 454 10 b 647 117 560 51 606 80 b 743 251 687 155 719 200 b 779 425 767 303 779 361 l 779 813 l 471 813 b 306 782 413 813 358 802 b 166 695 253 762 206 733 b 69 561 126 658 94 613 b 33 388 45 509 33 451 l 33 0 z m 340 375 l 340 390 l 417 326 b 340 306 395 313 370 306 z m 472 507 l 472 438 b 471 421 472 427 472 422 l 399 489 b 472 507 419 501 444 507 z "},"ù":{"ha":800,"x_min":0,"x_max":0,"o":"m 194 1149 l 278 885 l 544 885 l 471 1149 z m 767 813 l 460 813 l 460 438 b 429 341 460 396 450 364 b 340 306 409 318 379 306 l 340 813 l 33 813 l 33 0 l 340 0 b 504 31 398 0 452 10 b 640 117 556 51 601 80 b 733 251 679 155 710 200 b 767 425 755 303 767 361 z "},"ú":{"ha":800,"x_min":0,"x_max":0,"o":"m 329 1149 l 256 885 l 522 885 l 606 1149 z m 767 813 l 460 813 l 460 438 b 429 341 460 396 450 364 b 340 306 409 318 379 306 l 340 813 l 33 813 l 33 0 l 340 0 b 504 31 398 0 452 10 b 640 117 556 51 601 80 b 733 251 679 155 710 200 b 767 425 755 303 767 361 z "},"û":{"ha":800,"x_min":0,"x_max":0,"o":"m 713 885 l 636 1149 l 164 1149 l 88 885 l 364 885 l 400 1006 l 436 885 z m 767 813 l 460 813 l 460 438 b 429 341 460 396 450 364 b 340 306 409 318 379 306 l 340 813 l 33 813 l 33 0 l 340 0 b 504 31 398 0 452 10 b 640 117 556 51 601 80 b 733 251 679 155 710 200 b 767 425 755 303 767 361 z "},"ü":{"ha":800,"x_min":0,"x_max":0,"o":"m 367 885 l 367 1149 l 88 1149 l 88 885 z m 713 885 l 713 1149 l 433 1149 l 433 885 z m 767 813 l 460 813 l 460 438 b 429 341 460 396 450 364 b 340 306 409 318 379 306 l 340 813 l 33 813 l 33 0 l 340 0 b 504 31 398 0 452 10 b 640 117 556 51 601 80 b 733 251 679 155 710 200 b 767 425 755 303 767 361 z "},"ý":{"ha":803,"x_min":0,"x_max":0,"o":"m 461 813 l 461 414 b 456 395 459 407 458 401 b 451 378 455 389 453 383 b 342 510 378 383 342 427 l 342 813 l 35 813 l 35 497 b 59 352 35 442 43 393 b 128 235 75 311 98 272 l 33 0 l 332 0 b 497 31 389 0 444 10 b 637 117 550 51 597 80 b 733 251 677 155 709 200 b 769 425 757 303 769 361 l 769 813 z m 329 1149 l 256 885 l 522 885 l 606 1149 z "},"þ":{"ha":813,"x_min":0,"x_max":0,"o":"m 340 -75 l 340 0 l 342 0 b 507 31 399 0 454 10 b 647 117 560 51 606 80 b 743 251 687 155 719 200 b 779 425 767 303 779 361 l 779 813 l 340 813 l 340 888 l 33 888 l 33 -75 z m 472 507 l 472 438 b 435 340 472 396 460 363 b 340 306 411 317 379 306 l 340 507 z "},"ÿ":{"ha":803,"x_min":0,"x_max":0,"o":"m 368 885 l 368 1149 l 89 1149 l 89 885 z m 714 885 l 714 1149 l 435 1149 l 435 885 z m 461 813 l 461 414 b 456 395 459 407 458 401 b 451 378 455 389 453 383 b 342 510 378 383 342 427 l 342 813 l 35 813 l 35 497 b 59 352 35 442 43 393 b 128 235 75 311 98 272 l 33 0 l 332 0 b 497 31 389 0 444 10 b 637 117 550 51 597 80 b 733 251 677 155 709 200 b 769 425 757 303 769 361 l 769 813 z "},"Œ":{"ha":1250,"x_min":0,"x_max":0,"o":"m 622 813 l 33 813 l 33 425 b 69 251 33 361 45 303 b 166 117 94 200 126 155 b 306 31 206 80 253 51 b 471 0 358 10 413 0 l 1217 0 l 1217 306 l 778 306 l 778 375 b 815 472 778 417 790 449 b 910 507 839 495 871 507 l 910 438 b 897 374 910 413 906 391 l 1217 374 l 1217 813 l 908 813 b 754 784 855 813 803 803 b 622 704 705 765 661 738 z m 471 372 l 471 306 b 376 340 432 306 400 317 b 340 438 352 363 340 396 l 340 507 l 492 507 b 471 372 478 463 471 419 z "},"œ":{"ha":1251,"x_min":0,"x_max":0,"o":"m 910 375 l 1217 375 b 1181 563 1217 445 1205 508 b 1083 700 1156 617 1124 663 b 943 784 1043 737 996 765 b 779 813 890 803 836 813 l 471 813 b 306 782 413 813 358 802 b 166 695 253 762 206 733 b 69 561 126 658 94 613 b 33 388 45 509 33 451 l 33 0 l 622 0 l 622 107 b 754 28 661 73 705 46 b 908 0 803 9 855 0 l 1217 0 l 1217 306 l 910 306 b 815 340 871 306 839 317 b 778 438 790 363 778 396 l 778 507 b 873 472 817 507 848 495 b 910 375 897 449 910 417 z m 471 440 b 492 306 471 392 478 347 l 340 306 l 340 375 b 376 472 340 417 352 449 b 471 507 400 495 432 507 z "},"Š":{"ha":800,"x_min":0,"x_max":0,"o":"m 88 1149 l 164 885 l 636 885 l 713 1149 l 436 1149 l 400 1028 l 364 1149 z m 553 361 b 589 465 553 403 565 438 b 683 507 613 493 644 507 l 767 507 l 767 813 l 683 813 b 533 787 631 813 581 804 b 401 714 484 770 440 745 b 303 601 363 682 330 645 b 251 454 277 557 260 508 b 213 347 250 410 237 374 b 118 306 188 319 157 306 l 33 306 l 33 0 l 118 0 b 269 25 170 0 220 8 b 401 97 317 42 361 66 b 500 210 440 129 473 166 b 553 358 527 254 544 304 z "},"š":{"ha":813,"x_min":0,"x_max":0,"o":"m 93 1149 l 169 885 l 642 885 l 718 1149 l 442 1149 l 406 1028 l 369 1149 z m 340 375 b 377 472 340 417 353 449 b 472 507 402 495 433 507 l 779 507 l 779 813 l 471 813 b 306 788 413 813 358 804 b 166 712 253 772 206 747 b 69 576 126 677 94 632 b 33 375 45 521 33 454 z m 779 438 l 472 438 b 435 340 472 396 460 363 b 340 306 411 317 379 306 l 33 306 l 33 0 l 342 0 b 506 31 398 0 453 10 b 645 119 558 52 605 81 b 742 258 685 157 718 203 b 779 438 767 312 779 372 z "},"Ÿ":{"ha":803,"x_min":0,"x_max":0,"o":"m 435 885 l 435 1149 l 714 1149 l 714 885 z m 89 885 l 89 1149 l 368 1149 l 368 885 z m 342 813 l 342 510 b 372 413 342 468 352 436 b 461 378 393 391 422 379 l 461 813 l 768 813 l 768 0 l 33 0 l 128 235 b 59 352 98 272 75 311 b 35 497 43 393 35 442 l 35 813 z "},"Ž":{"ha":800,"x_min":0,"x_max":0,"o":"m 88 1149 l 164 885 l 636 885 l 713 1149 l 436 1149 l 400 1028 l 364 1149 z m 247 358 b 300 210 256 304 273 254 b 399 97 327 166 360 129 b 531 25 439 66 483 42 b 682 0 580 8 630 0 l 767 0 l 767 306 l 682 306 b 628 318 663 306 645 310 b 586 351 612 326 598 337 b 558 398 574 364 565 380 b 549 454 552 416 549 435 l 549 813 l 33 813 l 33 507 l 247 507 z "},"ž":{"ha":813,"x_min":0,"x_max":0,"o":"m 93 1149 l 169 885 l 642 885 l 718 1149 l 442 1149 l 406 1028 l 369 1149 z m 340 438 l 33 438 b 69 247 33 365 45 302 b 166 110 94 193 126 147 b 306 28 206 74 253 46 b 471 0 358 9 413 0 l 779 0 l 779 306 l 472 306 b 377 340 433 306 402 317 b 340 438 353 363 340 396 z m 472 375 l 779 375 l 779 813 l 33 813 l 33 507 l 472 507 z "},"ƒ":{"ha":813,"x_min":0,"x_max":0,"o":"m 33 388 b 69 561 33 451 45 509 b 166 695 94 613 126 658 b 306 782 206 733 253 762 b 471 813 358 802 413 813 l 779 813 l 779 440 b 778 407 779 429 779 418 b 774 375 777 396 775 385 l 460 375 b 472 438 468 393 472 413 l 472 507 b 377 472 433 507 402 495 b 340 375 353 449 340 417 l 340 306 l 758 306 b 713 175 755 256 739 213 b 613 79 686 137 653 105 b 482 20 574 53 530 34 b 342 0 434 7 387 0 l 33 0 z "},"ˆ":{"ha":692,"x_min":0,"x_max":0,"o":"m 658 885 l 582 1149 l 110 1149 l 33 885 l 310 885 l 346 1006 l 382 885 z "},"˜":{"ha":704,"x_min":0,"x_max":0,"o":"m 671 885 l 747 1149 l 471 1149 l 435 1028 l 399 1149 l 110 1149 l 33 885 l 310 885 l 346 1006 l 382 885 z "},"–":{"ha":408,"x_min":0,"x_max":0,"o":"m 33 558 l 375 558 l 375 253 l 33 253 z "},"—":{"ha":453,"x_min":0,"x_max":0,"o":"m 33 558 l 419 558 l 419 253 l 33 253 z "},"‘":{"ha":374,"x_min":0,"x_max":0,"o":"m 340 940 l 340 507 l 33 507 l 33 813 l -21 940 z "},"’":{"ha":374,"x_min":0,"x_max":0,"o":"m 340 940 l 340 507 l 33 507 l 33 813 l -21 940 z "},"‚":{"ha":374,"x_min":0,"x_max":0,"o":"m 340 -128 l 340 306 l 33 306 l 33 0 l -21 -128 z "},"“":{"ha":786,"x_min":0,"x_max":0,"o":"m 394 940 l 394 507 l 88 507 l 88 813 l 33 940 z m 753 940 l 753 507 l 446 507 l 446 940 z "},"”":{"ha":786,"x_min":0,"x_max":0,"o":"m 394 940 l 394 507 l 88 507 l 88 813 l 33 940 z m 753 940 l 753 507 l 446 507 l 446 940 z "},"„":{"ha":732,"x_min":0,"x_max":0,"o":"m 340 -128 l 340 306 l 33 306 l 33 0 l -21 -128 z m 699 -128 l 699 306 l 392 306 l 392 -128 z "},"†":{"ha":571,"x_min":0,"x_max":0,"o":"m 33 714 l 33 435 l 132 435 l 132 0 l 439 0 l 439 435 l 538 435 l 538 714 l 439 714 l 439 813 l 132 813 l 132 714 z "},"‡":{"ha":571,"x_min":0,"x_max":0,"o":"m 33 714 l 33 435 l 132 435 l 132 376 l 33 376 l 33 97 l 132 97 l 132 0 l 439 0 l 439 97 l 538 97 l 538 376 l 439 376 l 439 435 l 538 435 l 538 714 l 439 714 l 439 813 l 132 813 l 132 714 z "},"•":{"ha":199,"x_min":0,"x_max":0,"o":"m 33 375 l 33 306 b 128 340 72 306 104 317 b 165 438 153 363 165 396 l 165 507 b 70 472 126 507 95 495 b 33 375 46 449 33 417 z "},"…":{"ha":1099,"x_min":0,"x_max":0,"o":"m 703 0 l 703 306 l 396 306 l 396 0 z m 340 0 l 340 306 l 33 306 l 33 0 z m 1065 0 l 1065 306 l 758 306 l 758 0 z "},"‰":{"ha":1613,"x_min":0,"x_max":0,"o":"m 563 0 l 271 0 l 603 813 l 894 813 z m 722 0 l 722 211 b 742 306 722 245 729 277 b 794 381 755 335 772 360 b 871 430 817 402 842 418 b 963 447 900 441 930 447 l 1132 447 l 1132 235 b 1113 139 1132 200 1125 168 b 1060 65 1100 110 1082 86 b 983 17 1038 45 1012 29 b 892 0 953 6 923 0 z m 890 206 l 890 168 b 943 187 912 168 929 174 b 964 240 957 199 964 217 l 964 279 b 911 260 943 279 925 273 b 890 206 897 248 890 230 z m 33 365 l 33 576 b 53 672 33 611 40 642 b 106 747 66 701 83 726 b 182 795 128 767 153 784 b 274 813 211 807 241 813 l 443 813 l 443 600 b 424 504 443 565 437 533 b 371 431 411 475 393 451 b 294 383 349 410 323 394 b 203 365 265 371 234 365 z m 201 571 l 201 533 b 254 552 223 533 240 540 b 275 606 268 565 275 582 l 275 644 b 222 626 254 644 236 638 b 201 571 208 613 201 595 z m 1169 0 l 1169 211 b 1189 306 1169 245 1176 277 b 1242 381 1202 335 1219 360 b 1318 430 1264 402 1289 418 b 1410 447 1347 441 1377 447 l 1579 447 l 1579 235 b 1560 139 1579 200 1573 168 b 1507 65 1547 110 1529 86 b 1430 17 1485 45 1459 29 b 1339 0 1401 6 1370 0 z m 1338 206 l 1338 168 b 1390 187 1359 168 1376 174 b 1411 240 1404 199 1411 217 l 1411 279 b 1358 260 1390 279 1372 273 b 1338 206 1344 248 1338 230 z "},"‹":{"ha":331,"x_min":0,"x_max":0,"o":"m 297 94 l 33 171 l 33 643 l 297 719 l 297 443 l 176 407 l 297 371 z "},"›":{"ha":331,"x_min":0,"x_max":0,"o":"m 33 94 l 297 171 l 297 643 l 33 719 l 33 443 l 154 407 l 33 371 z "},"€":{"ha":750,"x_min":0,"x_max":0,"o":"m 33 376 l 33 97 l 126 97 l 126 0 l 715 0 l 715 306 l 433 306 l 433 375 b 469 472 433 417 445 449 b 564 507 494 495 525 507 l 717 507 l 717 813 l 564 813 b 417 787 513 813 464 804 b 288 714 369 770 326 745 l 33 714 l 33 435 l 131 435 b 126 376 128 415 126 396 z "},"™":{"ha":510,"x_min":0,"x_max":0,"o":"m 82 617 l 133 617 l 133 882 l 210 882 l 210 940 l 6 940 l 6 882 l 82 882 z m 231 617 l 278 617 l 278 874 l 333 617 l 381 617 l 435 874 l 435 617 l 483 617 l 483 940 l 401 940 l 356 715 l 310 940 l 231 940 z "}}}
